<svg width="5" height="5" viewBox="0 0 5 5" fill="none" xmlns="http://www.w3.org/2000/svg">
<path d="M3.64286 2.75L3.75 2L2.625 3L1.5 3.75L2.125 3.625L3 3.5L3.64286 2.75Z" stroke="white"/>
<circle cx="2" cy="2" r="1.5" stroke="white"/>
<path d="M2.53759 3.51854C2.71193 3.4183 2.90397 3.33876 3.06906 3.22363C3.13881 3.17498 3.07753 3.18912 3.03752 3.19945C2.9552 3.22069 2.87488 3.24879 2.79413 3.27515C2.79389 3.27522 2.69352 3.30182 2.69477 3.29933C2.70423 3.2804 2.78044 3.26296 2.7957 3.25675C2.86979 3.2266 3.09082 3.13322 3.01754 3.16528C2.90754 3.2134 2.79046 3.24821 2.67532 3.28198C2.6602 3.28641 2.53039 3.34276 2.56808 3.31878C2.65043 3.26637 2.74843 3.23051 2.83723 3.19104C2.94964 3.14108 2.75466 3.22452 2.73893 3.23046C2.53308 3.3083 2.32122 3.36747 2.11652 3.44757C2.08588 3.45956 2.06167 3.48319 2.03136 3.49436C2.02199 3.49781 1.99038 3.50323 1.98562 3.51433C1.97575 3.53736 2.11139 3.5146 2.12177 3.51171C2.27661 3.46855 2.42981 3.40534 2.57439 3.3356C2.61796 3.31458 2.68667 3.28769 2.69845 3.23467C2.70375 3.21083 2.71725 3.18416 2.72789 3.16212C2.80192 3.00878 2.88628 2.87668 3.02753 2.77522C3.05748 2.7537 3.11168 2.69773 3.15264 2.69532C3.1599 2.69489 3.11565 2.73079 3.10954 2.73632C3.00137 2.83413 2.88123 2.92825 2.74997 2.99285C2.65997 3.03714 2.56595 3.05759 2.47346 3.09273C2.4148 3.11502 2.35552 3.1596 2.3126 3.20418C2.29235 3.2252 2.29963 3.27989 2.33152 3.28934C2.37732 3.30291 2.48183 3.23745 2.51972 3.21995C2.73302 3.12142 2.94236 2.99928 3.13687 2.86774C3.25199 2.78989 3.3334 2.6607 3.43126 2.56284C3.47851 2.51559 3.53182 2.47882 3.57319 2.42564C3.58724 2.40758 3.55644 2.41005 3.54586 2.41197C3.51512 2.41756 3.48124 2.46134 3.46069 2.48189C3.41479 2.52779 3.36157 2.57195 3.32296 2.62435C3.27393 2.69089 3.23311 2.75196 3.17104 2.80886C3.14854 2.82949 2.79077 3.05936 2.90294 3.11113C2.95133 3.13346 3.01617 3.11691 3.06275 3.10167C3.18258 3.06247 3.35182 3.0053 3.4423 2.90979C3.48563 2.86405 3.49553 2.776 3.51747 2.71897C3.5402 2.65986 3.5712 2.60459 3.59317 2.54497C3.59697 2.53465 3.62736 2.45872 3.59737 2.49871C3.56299 2.54455 3.52665 2.58282 3.49539 2.63223C3.45246 2.70009 3.41555 2.77026 3.37658 2.8404C3.3051 2.96908 3.2349 3.12561 3.08851 3.18525C3.05256 3.1999 3.02255 3.22744 2.98653 3.24413C2.90567 3.2816 2.81595 3.30577 2.7384 3.35032C2.67137 3.38883 2.60393 3.41684 2.5418 3.46387C2.50555 3.4913 2.4509 3.56585 2.40512 3.56585" stroke="white" stroke-linecap="round" stroke-linejoin="round"/>
</svg>
