<svg width="9" height="8" viewBox="0 0 9 8" fill="none" xmlns="http://www.w3.org/2000/svg">
<path d="M7.28571 5.5L7.5 4L5.25 6L3 7.5L4.25 7.25L6 7L7.28571 5.5Z" stroke="white"/>
<circle cx="4" cy="4" r="3.5" stroke="white"/>
<path d="M5.07518 7.03708C5.42385 6.83659 5.80794 6.67752 6.13812 6.44726C6.27763 6.34997 6.15506 6.37824 6.07504 6.3989C5.91041 6.44138 5.74976 6.49759 5.58825 6.55029C5.58778 6.55045 5.38705 6.60365 5.38954 6.59866C5.40846 6.56081 5.56088 6.52592 5.5914 6.5135C5.73957 6.45319 6.18164 6.26644 6.03508 6.33056C5.81508 6.42681 5.58092 6.49641 5.35064 6.56396C5.32041 6.57283 5.06078 6.68553 5.13616 6.63756C5.30087 6.53274 5.49685 6.46101 5.67446 6.38207C5.89928 6.28215 5.50931 6.44903 5.47786 6.46093C5.06616 6.61661 4.64244 6.73494 4.23303 6.89514C4.17175 6.91912 4.12334 6.96638 4.06271 6.98871C4.04397 6.99562 3.98076 7.00647 3.97124 7.02867C3.9515 7.07472 4.22278 7.0292 4.24355 7.02341C4.55323 6.93711 4.85961 6.81068 5.14878 6.6712C5.23591 6.62917 5.37333 6.57539 5.3969 6.46934C5.40749 6.42166 5.4345 6.36833 5.45578 6.32425C5.60383 6.01757 5.77256 5.75336 6.05506 5.55044C6.11497 5.50741 6.22335 5.39545 6.30529 5.39063C6.31981 5.38978 6.2313 5.46158 6.21907 5.47264C6.00274 5.66825 5.76245 5.85651 5.49993 5.98571C5.31994 6.07429 5.13189 6.11518 4.94691 6.18547C4.8296 6.23005 4.71104 6.31921 4.62519 6.40836C4.5847 6.45041 4.59925 6.55978 4.66304 6.57868C4.75464 6.60582 4.96366 6.4749 5.03943 6.4399C5.46605 6.24284 5.88471 5.99857 6.27374 5.73548C6.50397 5.57979 6.6668 5.3214 6.86251 5.12569C6.95703 5.03117 7.06365 4.95765 7.14638 4.85128C7.17448 4.81515 7.11288 4.82009 7.09171 4.82394C7.03024 4.83512 6.96248 4.92268 6.92139 4.96377C6.82958 5.05558 6.72314 5.14391 6.64593 5.2487C6.54786 5.38179 6.46623 5.50393 6.34208 5.61773C6.29709 5.65897 5.58155 6.11873 5.80588 6.22227C5.90266 6.26693 6.03234 6.23381 6.1255 6.20334C6.36517 6.12495 6.70363 6.0106 6.88459 5.81959C6.97126 5.7281 6.99107 5.552 7.03494 5.43794C7.0804 5.31973 7.1424 5.20919 7.18633 5.08994C7.19394 5.06929 7.25473 4.91744 7.19475 4.99742C7.12599 5.08909 7.05331 5.16563 6.99078 5.26447C6.90492 5.40018 6.8311 5.54053 6.75317 5.68081C6.6102 5.93816 6.4698 6.25123 6.17702 6.37051C6.10512 6.3998 6.04511 6.45487 5.97305 6.48826C5.81134 6.5632 5.6319 6.61154 5.4768 6.70064C5.34274 6.77766 5.20787 6.83369 5.08359 6.92774C5.0111 6.98259 4.90179 7.1317 4.81024 7.1317" stroke="white" stroke-linecap="round" stroke-linejoin="round"/>
</svg>
