<svg width="8" height="8" viewBox="0 0 8 8" fill="none" xmlns="http://www.w3.org/2000/svg">
<path d="M6.375 5.3125L6.5625 4L4.59375 5.75L2.625 7.0625L3.71875 6.84375L5.25 6.625L6.375 5.3125Z" stroke="white"/>
<circle cx="3.5" cy="4" r="3" stroke="white"/>
<path d="M4.44078 6.65757C4.74587 6.48214 5.08195 6.34295 5.37085 6.14147C5.49292 6.05635 5.38568 6.08109 5.31566 6.09916C5.17161 6.13633 5.03104 6.18551 4.88972 6.23163C4.88931 6.23176 4.71367 6.27831 4.71585 6.27395C4.73241 6.24083 4.86577 6.2103 4.89248 6.19943C5.02213 6.14667 5.40894 5.98325 5.2807 6.03936C5.08819 6.12358 4.8833 6.18448 4.68181 6.24359C4.65536 6.25135 4.42818 6.34996 4.49414 6.30798C4.63826 6.21627 4.80975 6.15351 4.96515 6.08444C5.16187 5.99701 4.82065 6.14302 4.79312 6.15343C4.43289 6.28965 4.06214 6.39319 3.7039 6.53337C3.65028 6.55435 3.60793 6.5957 3.55487 6.61525C3.53847 6.62129 3.48316 6.63078 3.47484 6.65021C3.45757 6.6905 3.69493 6.65067 3.7131 6.64561C3.98407 6.57009 4.25216 6.45947 4.50518 6.33742C4.58142 6.30065 4.70167 6.25359 4.72229 6.16079C4.73156 6.11908 4.75518 6.07241 4.77381 6.03384C4.90335 5.76549 5.05099 5.53431 5.29818 5.35676C5.3506 5.3191 5.44543 5.22114 5.51712 5.21692C5.52983 5.21618 5.45239 5.279 5.44169 5.28868C5.2524 5.45985 5.04215 5.62457 4.81244 5.73762C4.65495 5.81513 4.49041 5.8509 4.32855 5.91241C4.2259 5.95141 4.12216 6.02943 4.04704 6.10744C4.01161 6.14423 4.02434 6.23993 4.08016 6.25647C4.16031 6.28021 4.3432 6.16566 4.4095 6.13503C4.78279 5.96261 5.14912 5.74887 5.48953 5.51867C5.69098 5.38244 5.83345 5.15635 6.0047 4.9851C6.0874 4.9024 6.18069 4.83807 6.25308 4.74499C6.27767 4.71338 6.22377 4.7177 6.20525 4.72107C6.15146 4.73085 6.09217 4.80747 6.05622 4.84342C5.97588 4.92376 5.88275 5.00104 5.81519 5.09273C5.72938 5.20919 5.65795 5.31606 5.54932 5.41563C5.50995 5.45173 4.88386 5.85401 5.08015 5.9446C5.16482 5.98368 5.2783 5.95471 5.35981 5.92805C5.56952 5.85945 5.86568 5.7594 6.02402 5.59226C6.09986 5.51221 6.11718 5.35812 6.15557 5.25832C6.19535 5.15488 6.2496 5.05816 6.28804 4.95382C6.2947 4.93576 6.34789 4.80288 6.2954 4.87286C6.23524 4.95308 6.17164 5.02005 6.11693 5.10653C6.04181 5.22528 5.97722 5.34808 5.90902 5.47083C5.78392 5.69601 5.66107 5.96995 5.40489 6.07432C5.34198 6.09995 5.28947 6.14813 5.22642 6.17735C5.08492 6.24292 4.92792 6.28522 4.7922 6.36318C4.6749 6.43057 4.55689 6.4796 4.44814 6.56189C4.38471 6.60989 4.28907 6.74036 4.20896 6.74036" stroke="white" stroke-linecap="round" stroke-linejoin="round"/>
</svg>
