<svg width="16" height="16" viewBox="0 0 16 16" fill="none" xmlns="http://www.w3.org/2000/svg">
<path d="M14.5714 11L15 8L10.5 12L6 15L8.5 14.5L12 14L14.5714 11Z" stroke="white"/>
<circle cx="8" cy="8" r="7.5" stroke="white"/>
<path d="M10.1504 14.0744C10.8477 13.6734 11.6159 13.3553 12.2762 12.8948C12.5553 12.7002 12.3101 12.7567 12.1501 12.798C11.8208 12.883 11.4995 12.9954 11.1765 13.1008C11.1756 13.1011 10.7741 13.2075 10.7791 13.1976C10.8169 13.1219 11.1218 13.0521 11.1828 13.0272C11.4791 12.9066 12.3633 12.5331 12.0702 12.6614C11.6302 12.8539 11.1618 12.9931 10.7013 13.1282C10.6408 13.1459 10.1216 13.3713 10.2723 13.2754C10.6017 13.0657 10.9937 12.9223 11.3489 12.7644C11.7986 12.5646 11.0186 12.8983 10.9557 12.9221C10.1323 13.2335 9.28489 13.4701 8.46606 13.7905C8.3435 13.8385 8.24669 13.933 8.12542 13.9777C8.08794 13.9915 7.96151 14.0132 7.94248 14.0576C7.90301 14.1497 8.44556 14.0586 8.48709 14.0471C9.10646 13.8745 9.71923 13.6216 10.2976 13.3426C10.4718 13.2586 10.7467 13.151 10.7938 12.9389C10.815 12.8436 10.869 12.7369 10.9116 12.6487C11.2077 12.0354 11.5451 11.507 12.1101 11.1011C12.2299 11.0151 12.4467 10.7911 12.6106 10.7815C12.6396 10.7798 12.4626 10.9234 12.4381 10.9455C12.0055 11.3368 11.5249 11.7133 10.9999 11.9717C10.6399 12.1488 10.2638 12.2306 9.89383 12.3712C9.6592 12.4603 9.42208 12.6387 9.25039 12.817C9.1694 12.9011 9.1985 13.1198 9.32609 13.1576C9.50928 13.2119 9.92733 12.95 10.0789 12.88C10.9321 12.4859 11.7694 11.9974 12.5475 11.4712C13.0079 11.1598 13.3336 10.643 13.725 10.2516C13.9141 10.0626 14.1273 9.91554 14.2928 9.7028C14.349 9.63055 14.2258 9.64043 14.1834 9.64813C14.0605 9.67048 13.925 9.8456 13.8428 9.92779C13.6592 10.1114 13.4463 10.2881 13.2919 10.4976C13.0957 10.7638 12.9325 11.0081 12.6842 11.2357C12.5942 11.3182 11.1631 12.2377 11.6118 12.4448C11.8053 12.5341 12.0647 12.4679 12.251 12.4069C12.7303 12.2501 13.4073 12.0215 13.7692 11.6394C13.9425 11.4564 13.9821 11.1042 14.0699 10.8761C14.1608 10.6397 14.2848 10.4186 14.3727 10.1801C14.3879 10.1388 14.5095 9.83512 14.3895 9.99508C14.252 10.1784 14.1066 10.3315 13.9816 10.5292C13.8098 10.8006 13.6622 11.0813 13.5063 11.3619C13.2204 11.8766 12.9396 12.5027 12.354 12.7413C12.2102 12.7998 12.0902 12.91 11.9461 12.9768C11.6227 13.1266 11.2638 13.2233 10.9536 13.4015C10.6855 13.5556 10.4157 13.6676 10.1672 13.8557C10.0222 13.9654 9.80358 14.2636 9.62047 14.2636" stroke="white" stroke-linecap="round" stroke-linejoin="round"/>
</svg>
