<svg width="417" height="396" viewBox="0 0 417 396" fill="none" xmlns="http://www.w3.org/2000/svg">
<path d="M242.919 18.9313C193.721 -6.50427 135.717 -5.16361 87.7578 22.5255C39.7989 50.2146 9.63568 99.7775 7.06921 155.099L0.874357 288.409C-0.154796 310.525 5.83893 331.934 18.1959 350.306C30.5553 368.683 48.1232 382.297 69.0048 389.692C89.8876 397.068 112.114 397.518 133.282 390.997C154.45 384.475 172.565 371.581 185.672 353.722L186.546 352.52C219.748 307.967 270.35 278.987 325.621 272.922C339.878 271.356 353.384 266.928 365.54 259.91C372.15 256.094 378.365 251.505 384.086 246.201C400.321 231.134 411.044 211.66 415.099 189.88C419.148 168.109 416.144 146.081 406.41 126.182C396.677 106.283 381.136 90.3927 361.464 80.2172L242.919 18.9313Z" fill="#FFBD54"/>
</svg>
